<?xml version="1.0" encoding="UTF-8" standalone="no"?>
<svg
   xmlns:dc="http://purl.org/dc/elements/1.1/"
   xmlns:cc="http://creativecommons.org/ns#"
   xmlns:rdf="http://www.w3.org/1999/02/22-rdf-syntax-ns#"
   xmlns:svg="http://www.w3.org/2000/svg"
   xmlns="http://www.w3.org/2000/svg"
   xmlns:sodipodi="http://sodipodi.sourceforge.net/DTD/sodipodi-0.dtd"
   xmlns:inkscape="http://www.inkscape.org/namespaces/inkscape"
   viewBox="0 0 64 64"
   id="email"
   version="1.1"
   sodipodi:docname="email.svg"
   inkscape:version="1.0.2-2 (e86c870879, 2021-01-15)">
  <metadata
     id="metadata13">
    <rdf:RDF>
      <cc:Work
         rdf:about="">
        <dc:format>image/svg+xml</dc:format>
        <dc:type
           rdf:resource="http://purl.org/dc/dcmitype/StillImage" />
      </cc:Work>
    </rdf:RDF>
  </metadata>
  <defs
     id="defs11" />
  <sodipodi:namedview
     pagecolor="#ffffff"
     bordercolor="#666666"
     borderopacity="1"
     objecttolerance="10"
     gridtolerance="10"
     guidetolerance="10"
     inkscape:pageopacity="0"
     inkscape:pageshadow="2"
     inkscape:window-width="3840"
     inkscape:window-height="2066"
     id="namedview9"
     showgrid="false"
     inkscape:zoom="15.75"
     inkscape:cx="32"
     inkscape:cy="32"
     inkscape:window-x="-11"
     inkscape:window-y="-11"
     inkscape:window-maximized="1"
     inkscape:current-layer="email" />
  <path
     fill="#222"
     d="M53.42 53.32H10.58a8.51 8.51 0 0 1-8.5-8.5V19.18a8.51 8.51 0 0 1 8.5-8.5h42.84a8.51 8.51 0 0 1 8.5 8.5v25.64a8.51 8.51 0 0 1-8.5 8.5ZM10.58 13.68a5.5 5.5 0 0 0-5.5 5.5v25.64a5.5 5.5 0 0 0 5.5 5.5h42.84a5.5 5.5 0 0 0 5.5-5.5V19.18a5.5 5.5 0 0 0-5.5-5.5Z"
     id="path2"
     style="fill:#000000;stroke-width:1;stroke-miterlimit:4;stroke-dasharray:none;stroke:#000000;stroke-opacity:1" />
  <path
     fill="#222"
     d="M32 38.08a8.51 8.51 0 0 1-5.13-1.71L3.52 18.71a1.5 1.5 0 1 1 1.81-2.39L28.68 34a5.55 5.55 0 0 0 6.64 0l23.35-17.68a1.5 1.5 0 1 1 1.81 2.39L37.13 36.37A8.51 8.51 0 0 1 32 38.08Z"
     id="path4"
     style="fill:#000000" />
  <path
     fill="#222"
     d="M4.17 49.14a1.5 1.5 0 0 1-1-2.62l18.4-16.41a1.5 1.5 0 0 1 2 2.24L5.17 48.76a1.46 1.46 0 0 1-1 .38zm55.66 0a1.46 1.46 0 0 1-1-.38l-18.4-16.41a1.5 1.5 0 1 1 2-2.24l18.39 16.41a1.5 1.5 0 0 1-1 2.62z"
     id="path6"
     style="fill:#000000" />
</svg>
