<?xml version="1.0" encoding="UTF-8" standalone="no"?>
<svg
   xmlns:dc="http://purl.org/dc/elements/1.1/"
   xmlns:cc="http://creativecommons.org/ns#"
   xmlns:rdf="http://www.w3.org/1999/02/22-rdf-syntax-ns#"
   xmlns:svg="http://www.w3.org/2000/svg"
   xmlns="http://www.w3.org/2000/svg"
   xmlns:sodipodi="http://sodipodi.sourceforge.net/DTD/sodipodi-0.dtd"
   xmlns:inkscape="http://www.inkscape.org/namespaces/inkscape"
   viewBox="0 0 52 52"
   id="map-pin"
   version="1.1"
   sodipodi:docname="pin.svg"
   inkscape:version="1.0.2-2 (e86c870879, 2021-01-15)">
  <metadata
     id="metadata11">
    <rdf:RDF>
      <cc:Work
         rdf:about="">
        <dc:format>image/svg+xml</dc:format>
        <dc:type
           rdf:resource="http://purl.org/dc/dcmitype/StillImage" />
      </cc:Work>
    </rdf:RDF>
  </metadata>
  <defs
     id="defs9" />
  <sodipodi:namedview
     pagecolor="#ffffff"
     bordercolor="#666666"
     borderopacity="1"
     objecttolerance="10"
     gridtolerance="10"
     guidetolerance="10"
     inkscape:pageopacity="0"
     inkscape:pageshadow="2"
     inkscape:window-width="3840"
     inkscape:window-height="2066"
     id="namedview7"
     showgrid="false"
     inkscape:zoom="19.384615"
     inkscape:cx="26"
     inkscape:cy="26"
     inkscape:window-x="-11"
     inkscape:window-y="-11"
     inkscape:window-maximized="1"
     inkscape:current-layer="map-pin" />
  <path
     stroke="#000"
     stroke-linecap="round"
     stroke-width="2"
     d="M31.2 36.4C35.1 29.9 40 20.6 40 16c0-7.7-6.3-14-14-14S12 8.3 12 16c0 4.6 5 13.9 8.8 20.5C5.5 38.9 8.7 50 26 50c17.5 0 20.3-11.1 5.2-13.6zM14 16c0-6.6 5.4-12 12-12s12 5.4 12 12c0 5.7-9 20.4-12 25.1-3-4.7-12-19.4-12-25.1zm12 32c-7.7 0-13-2.6-13-5 0-1.9 3.5-4 8.9-4.7 4.7 7.7 3.7 7.5 8.2 0 5.4.7 8.9 2.8 8.9 4.7 0 2.4-5.3 5-13 5z"
     id="path2"
     style="stroke-width:1.5;stroke-miterlimit:4;stroke-dasharray:none" />
  <path
     stroke="#000"
     stroke-linecap="round"
     stroke-width="2"
     d="M34 16c0-4.4-3.6-8-8-8s-8 3.6-8 8 3.6 8 8 8 8-3.6 8-8zm-14 0c0-3.3 2.7-6 6-6s6 2.7 6 6-2.7 6-6 6-6-2.7-6-6z"
     id="path4" />
</svg>
